<?xml version="1.0" encoding="iso-8859-1"?>
<!-- Generator: Adobe Illustrator 19.0.0, SVG Export Plug-In . SVG Version: 6.00 Build 0)  -->
<svg version="1.1" id="Layer_1" xmlns="http://www.w3.org/2000/svg" xmlns:xlink="http://www.w3.org/1999/xlink" x="0px" y="0px"
	 viewBox="0 0 297 297" style="enable-background:new 0 0 297 297;" xml:space="preserve">
<g>
	<g>
		<g>
			<path d="M277.075,38.277H19.925C8.938,38.277,0,47.215,0,58.202v23.755c0,10.987,8.938,19.926,19.925,19.926h257.15
				c10.987,0,19.925-8.939,19.925-19.926V58.202C297,47.215,288.062,38.277,277.075,38.277z M20.224,81.659V58.501h256.551v23.158
				H20.224z"/>
			<path d="M277.075,116.697H19.925C8.938,116.697,0,125.635,0,136.622v23.756c0,10.987,8.938,19.925,19.925,19.925h257.15
				c10.987,0,19.925-8.938,19.925-19.925v-23.756C297,125.635,288.062,116.697,277.075,116.697z M20.224,160.079v-23.157h256.551
				v23.157H20.224z"/>
			<path d="M277.075,195.117H19.925C8.938,195.117,0,204.056,0,215.043v23.755c0,10.987,8.938,19.925,19.925,19.925h257.15
				c10.987,0,19.925-8.938,19.925-19.925v-23.755C297,204.056,288.062,195.117,277.075,195.117z M20.224,238.499v-23.157h256.551
				v23.157H20.224z"/>
		</g>
	</g>
</g>
<g>
</g>
<g>
</g>
<g>
</g>
<g>
</g>
<g>
</g>
<g>
</g>
<g>
</g>
<g>
</g>
<g>
</g>
<g>
</g>
<g>
</g>
<g>
</g>
<g>
</g>
<g>
</g>
<g>
</g>
</svg>
